HIERARCHY
ROOT Hips
{
	OFFSET -0.001795 -0.223333 0.028219
	CHANNELS 6 Xposition Yposition Zposition Zrotation Yrotation Xrotation 
	JOINT LeftUpLeg
	{
		OFFSET 0.069520 -0.091406 -0.006815
		CHANNELS 3 Zrotation Yrotation Xrotation
		JOINT LeftLeg
		{
			OFFSET 0.034277 -0.375199 -0.004496
			CHANNELS 3 Zrotation Yrotation Xrotation
			JOINT LeftFoot
			{
				OFFSET -0.013596 -0.397961 -0.043693
				CHANNELS 3 Zrotation Yrotation Xrotation
				JOINT LeftToe
				{
					OFFSET 0.026358 -0.055791 0.119288
					CHANNELS 3 Zrotation Yrotation Xrotation
					End Site
					{
						OFFSET 0.000000 0.000000 0.000000
					}
				}
			}
		}
	}
	JOINT RightUpLeg
	{
		OFFSET -0.067670 -0.090522 -0.004320
		CHANNELS 3 Zrotation Yrotation Xrotation
		JOINT RightLeg
		{
			OFFSET -0.038290 -0.382569 -0.008850
			CHANNELS 3 Zrotation Yrotation Xrotation
			JOINT RightFoot
			{
				OFFSET 0.015774 -0.398415 -0.042312
				CHANNELS 3 Zrotation Yrotation Xrotation
				JOINT RightToe
				{
					OFFSET -0.025372 -0.048144 0.123348
					CHANNELS 3 Zrotation Yrotation Xrotation
					End Site
					{
						OFFSET 0.000000 0.000000 0.000000
					}
				}
			}
		}
	}
	JOINT Spine
	{
		OFFSET -0.002533 0.108963 -0.026696
		CHANNELS 3 Zrotation Yrotation Xrotation
		JOINT Spine1
		{
			OFFSET 0.005487 0.135180 0.001092
			CHANNELS 3 Zrotation Yrotation Xrotation
			JOINT Spine2
			{
				OFFSET 0.001457 0.052922 0.025425
				CHANNELS 3 Zrotation Yrotation Xrotation
				JOINT Neck
				{
					OFFSET -0.002778 0.213870 -0.042857
					CHANNELS 3 Zrotation Yrotation Xrotation
					JOINT Head
					{
						OFFSET 0.005152 0.064970 0.051349
						CHANNELS 3 Zrotation Yrotation Xrotation
						End Site
						{
							OFFSET 0.000000 0.000000 0.000000
						}
					}
				}
				JOINT LeftShoulder
				{
					OFFSET 0.078845 0.121749 -0.034090
					CHANNELS 3 Zrotation Yrotation Xrotation
					JOINT LeftArm
					{
						OFFSET 0.090977 0.030469 -0.008868
						CHANNELS 3 Zrotation Yrotation Xrotation
						JOINT LeftForeArm
						{
							OFFSET 0.259612 -0.012772 -0.027456
							CHANNELS 3 Zrotation Yrotation Xrotation
							JOINT LeftHand
							{
								OFFSET 0.249234 0.008986 -0.001171
								CHANNELS 3 Zrotation Yrotation Xrotation
								End Site
								{
									OFFSET 0.000000 0.000000 0.000000
								}
							}
						}
					}
				}
				JOINT RightShoulder
				{
					OFFSET -0.081759 0.118833 -0.038615
					CHANNELS 3 Zrotation Yrotation Xrotation
					JOINT RightArm
					{
						OFFSET -0.096012 0.032551 -0.009143
						CHANNELS 3 Zrotation Yrotation Xrotation
						JOINT RightForeArm
						{
							OFFSET -0.253742 -0.013329 -0.021401
							CHANNELS 3 Zrotation Yrotation Xrotation
							JOINT RightHand
							{
								OFFSET -0.255298 0.007772 -0.005559
								CHANNELS 3 Zrotation Yrotation Xrotation
								End Site
								{
									OFFSET 0.000000 0.000000 0.000000
								}
							}
						}
					}
				}
			}
		}
	}
}
MOTION
Frames: 8
Frame Time: 0.050000
0.000872 0.956331 -0.082392 0.175867 -15.048273 9.509858 5.287349 -0.403996 -11.882508 -1.696448 0.229535 4.861146 5.938164 12.697384 16.513476 0.000000 0.000000 0.000000 -2.433449 1.500033 -14.828280 -7.285201 0.769368 1.363194 9.255218 11.424421 11.903621 0.000000 0.000000 0.000000 7.997806 -0.365531 1.104835 2.627118 -1.119502 -3.521292 -10.410239 -3.383956 3.028150 14.057695 -11.733983 3.843377 0.000000 0.000000 0.000000 35.171374 -12.913816 1.181705 0.076871 -30.841632 -0.739860 80.302299 -38.966433 -25.561004 0.000000 0.000000 0.000000 -29.348087 -8.771076 4.143168 10.606989 32.940090 -0.623198 -115.329284 53.550794 -78.959387 0.000000 0.000000 0.000000 
0.001643 0.955859 -0.082865 0.286588 -15.563269 9.187069 5.199261 -0.396572 -11.736829 -1.909483 0.278190 5.246146 6.200592 13.036800 16.461005 0.000000 0.000000 0.000000 -2.772462 1.482591 -14.783312 -7.041435 0.764537 1.586752 9.525408 12.008975 11.829188 0.000000 0.000000 0.000000 7.845557 -0.366437 1.249711 2.570057 -1.098983 -3.650025 -10.199282 -3.018363 2.905900 13.451701 -11.065497 2.917414 0.000000 0.000000 0.000000 33.408216 -12.416899 1.281306 -1.564495 -30.869612 -0.497205 86.697573 -39.732818 -29.344269 0.000000 0.000000 0.000000 -28.118553 -8.063068 3.946770 11.657599 34.094292 -0.395250 -116.743703 52.339513 -78.790840 0.000000 0.000000 0.000000 
0.002398 0.955162 -0.083435 0.505981 -15.710786 9.071254 5.209681 -0.394875 -11.997989 -2.406889 0.382557 5.759242 6.275429 13.137494 16.321047 0.000000 0.000000 0.000000 -2.958463 1.453899 -14.598444 -7.219758 0.772850 1.494969 9.386480 12.255534 11.219181 0.000000 0.000000 0.000000 7.737050 -0.348262 1.134451 2.596127 -1.115818 -3.096058 -10.070751 -2.741732 2.162298 13.581268 -10.790621 1.168350 0.000000 0.000000 0.000000 31.271058 -11.735340 1.501585 -2.165887 -30.520110 -0.458429 93.119818 -39.989663 -33.268200 0.000000 0.000000 0.000000 -26.940697 -7.743643 3.712839 12.007428 35.447974 -0.244034 -117.565608 51.680575 -78.427545 0.000000 0.000000 0.000000 
0.002888 0.955240 -0.084272 0.543148 -15.764818 8.906231 5.209735 -0.389774 -11.837273 -2.514165 0.402934 5.681322 6.284343 13.146783 16.346674 0.000000 0.000000 0.000000 -3.143523 1.458967 -14.727018 -7.052105 0.801153 1.912962 9.450959 12.449686 11.166141 0.000000 0.000000 0.000000 7.601179 -0.343881 1.167181 2.701745 -1.157942 -3.456047 -10.029843 -2.681465 2.292798 13.080937 -10.290941 0.515109 0.000000 0.000000 0.000000 29.889630 -10.946273 1.493459 -2.615922 -30.294805 -0.411989 97.192479 -39.541829 -35.188516 0.000000 0.000000 0.000000 -25.801496 -6.844303 3.575088 11.278864 36.318285 -0.408482 -118.981129 51.129769 -79.167755 0.000000 0.000000 0.000000 
0.003061 0.955963 -0.085055 0.572052 -15.775609 9.039434 5.294373 -0.383998 -12.055402 -2.703003 0.440053 5.685422 6.250151 13.094042 16.607993 0.000000 0.000000 0.000000 -3.265547 1.445372 -14.644562 -6.914681 0.727198 1.385833 9.618846 12.418962 11.579694 0.000000 0.000000 0.000000 7.764012 -0.316213 0.843010 2.246416 -0.964777 -4.037600 -10.005751 -2.024246 2.659799 13.336803 -10.193183 -1.300415 0.000000 0.000000 0.000000 29.113460 -10.538544 1.569396 -2.005821 -31.181700 -0.562315 96.171471 -36.819212 -32.159341 0.000000 0.000000 0.000000 -25.153211 -6.443447 3.353281 12.040838 36.693931 -0.167828 -119.156025 50.715067 -78.352100 0.000000 0.000000 0.000000 
0.003177 0.956651 -0.085628 0.421114 -15.449381 9.085573 5.595643 -0.356778 -12.083975 -2.887968 0.468871 5.557973 6.050363 12.834297 16.698840 0.000000 0.000000 0.000000 -2.977453 1.458751 -14.679552 -6.868159 0.734144 1.476503 9.261078 11.555643 11.713439 0.000000 0.000000 0.000000 7.326230 -0.293089 0.701492 2.679353 -1.130279 -4.668952 -10.010158 -1.788189 2.644453 13.463731 -10.179419 -1.904821 0.000000 0.000000 0.000000 28.588309 -9.778224 1.593909 -1.354933 -32.646423 -0.710439 92.583007 -33.165573 -26.932209 0.000000 0.000000 0.000000 -24.101349 -5.874623 3.134543 11.876459 37.493376 -0.141661 -118.543260 49.981897 -76.308414 0.000000 0.000000 0.000000 
0.003497 0.957447 -0.085605 0.308734 -14.535938 9.083502 5.883055 -0.345511 -11.957761 -3.066571 0.481186 5.117309 5.543684 12.188333 16.661787 0.000000 0.000000 0.000000 -3.050218 1.382225 -14.105805 -6.572045 0.675648 1.156923 8.825886 11.060883 11.355783 0.000000 0.000000 0.000000 7.142303 -0.258873 0.378720 2.864144 -1.183588 -5.376052 -10.086095 -1.757865 2.913960 13.421394 -9.973833 -2.908971 0.000000 0.000000 0.000000 27.961948 -9.817702 1.699229 -0.929593 -34.175735 -0.849560 90.769791 -29.583943 -23.015171 0.000000 0.000000 0.000000 -22.735023 -5.235188 2.852618 12.901018 37.915868 0.199330 -117.888265 49.892776 -75.013669 0.000000 0.000000 0.000000 
0.004364 0.957670 -0.084964 0.154037 -13.522313 9.105378 6.033282 -0.352199 -11.848541 -2.609424 0.400910 6.349963 3.797516 9.316274 12.772901 0.000000 0.000000 0.000000 -2.925051 1.307037 -13.436580 -6.554257 0.644814 0.810386 8.208406 10.421078 10.707702 0.000000 0.000000 0.000000 6.795348 -0.197207 -0.177248 3.071841 -1.253479 -5.489278 -9.960816 -1.542203 2.427322 13.498543 -9.899716 -3.409510 0.000000 0.000000 0.000000 26.885776 -9.241241 1.864050 -1.186147 -36.853074 -0.896359 90.038693 -28.153975 -21.890079 0.000000 0.000000 0.000000 -20.886527 -4.603762 2.473218 14.468889 37.507072 0.752010 -118.748646 50.301263 -75.759904 0.000000 0.000000 0.000000 
